HIERARCHY
ROOT pelvis
{
  OFFSET 0 100 0
  CHANNELS 6 Xposition Yposition Zposition Zrotation Xrotation Yrotation
  JOINT pelvis_right_femur
  {
    OFFSET -10.78128 -3.44521 -0.5502486
    CHANNELS 3 Zrotation Xrotation Yrotation
    JOINT right_femur_tibia
    {
      OFFSET -0.8047443 -44.0398 -0.1307829
      CHANNELS 3 Zrotation Xrotation Yrotation
      JOINT right_tibia_foot
      {
        OFFSET 3.006224 -47.83518 -5
        CHANNELS 3 Zrotation Xrotation Yrotation
        End Site
        {
          OFFSET 0 -5 15
        }
      }
    }
  }
  JOINT pelvis_left_femur
  {
    OFFSET 10.78128 -3.44521 -0.5502486
    CHANNELS 3 Zrotation Xrotation Yrotation
    JOINT left_femur_tibia
    {
      OFFSET 0.8047443 -44.0398 -0.1307829
      CHANNELS 3 Zrotation Xrotation Yrotation
      JOINT left_tibia_foot
      {
        OFFSET -4.370144 -48.10324 -4.275266
        CHANNELS 3 Zrotation Xrotation Yrotation
        End Site
        {
          OFFSET 0 -5 15
        }
      }
    }
  }
  JOINT pelvis_spine1
  {
    OFFSET 0 6.468898 -3.129235
    CHANNELS 3 Zrotation Xrotation Yrotation
    JOINT spine1
    {
      OFFSET 0 23.15396 4.99043
      CHANNELS 3 Zrotation Xrotation Yrotation
      JOINT spine2
      {
        OFFSET 0 20.79997 -5.064912
        CHANNELS 3 Zrotation Xrotation Yrotation
        JOINT neck
        {
          OFFSET 0 14.38658 9.616178
          CHANNELS 3 Zrotation Xrotation Yrotation
          End Site
          {
            OFFSET 0 20 0
          }
        }
      }
      JOINT right_manubrium
      {
        OFFSET -5.722621 16.35077 3.967754
        CHANNELS 3 Zrotation Xrotation Yrotation
        JOINT right_clavicle
        {
          OFFSET -13.16364 1.694482 -4.693211
          CHANNELS 3 Zrotation Xrotation Yrotation
          JOINT right_humerus
          {
            OFFSET -28.5034 -0.3100689 -2.792744
            CHANNELS 3 Zrotation Xrotation Yrotation
            JOINT right_radius
            {
              OFFSET -25.15693 0.02248979 -1.271978
              CHANNELS 3 Zrotation Xrotation Yrotation
              End Site
              {
                OFFSET -15 0 0
              }
            }
          }
        }
      }
      JOINT left_manubrium
      {
        OFFSET 5.722621 16.35077 3.967754
        CHANNELS 3 Zrotation Xrotation Yrotation
        JOINT left_clavicle
        {
          OFFSET 13.16364 1.694482 -4.693211
          CHANNELS 3 Zrotation Xrotation Yrotation
          JOINT left_humerus
          {
            OFFSET 29.39168 -1.063119 -2.237045
            CHANNELS 3 Zrotation Xrotation Yrotation
            JOINT left_radius
            {
              OFFSET 24.59957 -0.9528479 0.9047498
              CHANNELS 3 Zrotation Xrotation Yrotation
              End Site
              {
                OFFSET 15 -0 -0
              }
            }
          }
        }
      }
    }
  }
}
MOTION
Frames: 7
Frame Time: 0.0416666666667
0 103.5113 0 2.184268 -1.182643 0.2740519 1.236984 -10.11201 8.691807 -0 34.21954 -0 -5.267233 -17.90717 -2.301583 -8.042796 10.10012 -23.48686 -0 5.150005 -0 7.66973 -16.17854 26.56191 -4.345541 -5.044219 4.964963 2.028301 9.209502 -7.740192 0.8336973 22.80357 7.175249 3.254118 -23.11201 8.80439 6.370337 -19.74995 11.57694 86.32057 35.95327 -19.81093 -0 0 16.21938 -7.574826 8.247781 4.614388 5.513507 -19.50031 -1.693087 -94.74523 29.73981 22.87084 0 0 -16.08105 3.527025 17.89933 9.531894
0.3305862 103.4103 1.392012 2.044111 -1.028193 0.4477375 1.477423 -11.12951 8.497985 -0 33.21367 -0 -5.307634 -17.39806 -2.175891 -7.926807 10.24716 -23.32485 -0 5.236557 -0 7.51042 -16.5019 26.3545 -4.299308 -4.840452 4.939965 2.134039 9.167744 -7.747099 0.8519503 22.68375 7.194096 3.284992 -23.25985 8.823206 6.347511 -19.66774 11.57897 86.33045 35.94531 -19.90517 -0 0 16.04031 -7.608361 8.290405 4.626776 5.62022 -19.58801 -1.690228 -94.56011 29.68273 22.58511 0 0 -16.55337 3.639301 17.80444 9.440175
0.6659321 103.2329 2.913542 1.868267 -0.7855871 0.5571383 1.763156 -12.52173 8.184415 -0 31.24967 -0 -5.34655 -16.60923 -1.872087 -7.793406 10.44387 -23.06104 -0 5.409816 -0 7.261646 -16.96817 26.02295 -4.253499 -4.567764 4.93243 2.290997 9.102124 -7.739646 0.8794695 22.51108 7.217832 3.33235 -23.46049 8.84264 6.302686 -19.53222 11.57772 86.3577 35.93391 -20.05806 -0 0 15.75552 -7.65642 8.355824 4.639473 5.797495 -19.72596 -1.683187 -94.27147 29.59515 22.12046 0 0 -17.27768 3.807417 17.66998 9.288816
1.011559 102.9446 4.618292 1.699003 -0.442525 0.6129812 2.016207 -14.13978 7.744562 -0 28.05236 -0 -5.365506 -15.52674 -1.330818 -7.683843 10.68339 -22.67558 -0 5.728528 -0 6.904416 -17.5517 25.53299 -4.225213 -4.263578 4.956447 2.481105 9.012345 -7.707295 0.9159606 22.3058 7.243724 3.394623 -23.69326 8.860237 6.220989 -19.33631 11.56112 86.42121 35.91946 -20.27581 -0 0 15.35692 -7.718985 8.4467 4.6522 6.048326 -19.91968 -1.668104 -93.87347 29.47822 21.46713 0 0 -18.23272 4.019601 17.49933 9.081392
1.373577 102.5164 6.563177 1.567051 0.003844394 0.6478379 2.180443 -15.81886 7.181725 -0 23.56755 -0 -5.362755 -14.17836 -0.5412095 -7.624668 10.9594 -22.15483 -0 6.25834 -0 6.413667 -18.20488 24.85271 -4.218866 -3.964016 5.012685 2.683359 8.899781 -7.650565 0.9578069 22.08937 7.27084 3.467862 -23.93763 8.87386 6.09394 -19.07764 11.51907 86.53953 35.90211 -20.5597 -0 0 14.84526 -7.796388 8.565612 4.667243 6.358915 -20.1657 -1.646032 -93.37453 29.33272 20.64402 0 0 -19.36063 4.258275 17.29513 8.83446
1.753118 101.9462 8.809553 1.473404 0.5371241 0.7083051 2.256606 -17.34569 6.523998 -0 18.19401 -0 -5.364578 -12.69038 0.418773 -7.606167 11.26237 -21.49423 -0 7.096839 -0 5.746074 -18.82293 23.95218 -4.207984 -3.703532 5.073125 2.87426 8.767656 -7.595873 0.9924254 21.88252 7.302473 3.543028 -24.17206 8.879117 5.928968 -18.76054 11.44728 86.73237 35.88205 -20.90412 -0 0 14.23553 -7.889517 8.71601 4.691612 6.676955 -20.43894 -1.632579 -92.81296 29.15967 19.7286 0 0 -20.5229 4.494765 17.05883 8.59218
2.14333 101.2738 11.42565 1.397905 1.127724 0.8491557 2.28767 -18.46091 5.820954 -0 12.62366 -0 -5.406889 -11.25563 1.418384 -7.594438 11.57537 -20.69321 -0 8.384585 -0 4.843448 -19.24814 22.80014 -4.143268 -3.517117 5.09211 3.028288 8.620159 -7.585369 1.000897 21.70585 7.344118 3.607212 -24.37285 8.868801 5.743774 -18.39232 11.34567 87.02075 35.85984 -21.29913 -0 0 13.55039 -8.000661 8.902721 4.735963 6.922885 -20.69867 -1.65393 -92.2465 28.96207 18.83811 0 0 -21.52475 4.692552 16.79076 8.417519
